<?xml version="1.0" encoding="utf-8"?>
<!-- Generator: Adobe Illustrator 16.0.0, SVG Export Plug-In . SVG Version: 6.00 Build 0)  -->
<!DOCTYPE svg PUBLIC "-//W3C//DTD SVG 1.1//EN" "http://www.w3.org/Graphics/SVG/1.1/DTD/svg11.dtd">
<svg version="1.1" id="Layer_1" xmlns="http://www.w3.org/2000/svg" xmlns:xlink="http://www.w3.org/1999/xlink" x="0px" y="0px"
	 width="416px" height="97px" viewBox="-190.5 31.057 416 97" enable-background="new -190.5 31.057 416 97" xml:space="preserve">
<rect x="-190.5" y="31.057" fill="#2FC90A" width="416" height="97"/>
<g>
	<path fill="#FFFFFF" d="M17.5,35.585c-24.249,0-43.972,19.729-43.972,43.972s19.723,43.972,43.972,43.972
		c24.248,0,43.972-19.729,43.972-43.972S41.748,35.585,17.5,35.585z M17.5,119.864c-22.227,0-40.309-18.081-40.309-40.308
		c0-22.224,18.082-40.308,40.309-40.308S57.808,57.33,57.808,79.557S39.727,119.864,17.5,119.864z"/>
	<path fill="#FFFFFF" d="M34.981,78.016L9.332,61.526c-0.562-0.368-1.288-0.388-1.868-0.069c-0.589,0.322-0.955,0.938-0.955,1.61
		v32.979c0,0.67,0.366,1.286,0.955,1.61c0.27,0.146,0.575,0.223,0.879,0.223c0.343,0,0.689-0.099,0.991-0.292l25.649-16.489
		c0.522-0.339,0.841-0.918,0.841-1.541S35.504,78.354,34.981,78.016z"/>
</g>
</svg>
